<?xml version="1.0" encoding="UTF-8"?>
<svg id="_图层_2" data-name="图层 2" xmlns="http://www.w3.org/2000/svg" viewBox="0 0 722.43 169.8">
  <defs>
    <style>
      .cls-1 {
        fill: #5277ff;
      }
    </style>
  </defs>
  <g id="_图层_1-2" data-name="图层 1">
    <g>
      <g>
        <path class="cls-1" d="M140.12,34.92c-7.28,4.25-14.15,8.28-21.04,12.27-8.62,5-17.26,9.97-25.89,14.97-.86,.5-1.66,1.1-2.51,1.63-2.42,1.51-3.64,3.66-3.65,6.53-.02,4.74-.29,9.49-.07,14.22,.17,3.65-1.46,5.72-4.43,7.45-7.34,4.29-7.22,4.23-14.58,.05-3.46-1.97-4.78-4.41-4.63-8.43,.32-8.72,.15-17.46,.17-26.2,0-.87,.06-1.76-.05-2.62-.31-2.48-1.92-3.44-4.21-2.57-.46,.18-.9,.42-1.33,.67-5.27,3.08-10.52,6.21-15.81,9.25-2.97,1.71-4.49,4.03-4.36,7.6,.2,5.36,.09,10.73,.1,16.09,0,1.5-.02,2.99-.04,4.49-.05,3.94-1.7,6.79-5.23,8.8-7.47,4.25-14.82,8.73-22.22,13.11-3.21,1.9-6.42,3.8-9.99,5.91-.13-1.16-.33-2.07-.33-2.98C0,93.84,.03,72.5,0,51.17c0-6.37,2.49-11.44,7.84-14.85,5.25-3.34,10.68-6.42,16.07-9.55,13.37-7.75,26.75-15.48,40.16-23.15,2.04-1.17,4.18-2.29,6.42-2.97,4.38-1.32,8.58-.58,12.58,1.71,15.67,9,31.37,17.94,47.06,26.9,3.21,1.83,6.44,3.64,9.99,5.65Z"/>
        <path class="cls-1" d="M147.58,59.88c0,2.08,0,3.4,0,4.72-.05,17.47-.3,34.94-.06,52.4,.12,8.89-3.68,14.8-11.2,19.12-16.65,9.55-33.16,19.34-49.73,29.03-1.4,.82-2.84,1.55-4.24,2.38-5.35,3.18-10.58,2.93-15.88-.26-6.62-3.99-13.32-7.85-20.03-11.69-8.44-4.82-16.94-9.55-25.4-14.35-1.71-.97-3.35-2.07-5.39-3.34,4.89-2.83,9.37-5.41,13.84-8.02,7.32-4.27,14.69-8.45,21.92-12.87,2.91-1.78,5.39-1.98,8.27,0,3.18,2.18,6.65,3.94,9.91,6.01,3.84,2.44,7.4,2.66,11.47,.13,8.14-5.07,16.5-9.8,24.81-14.59,3.23-1.86,4.83-4.55,4.84-8.25,0-4.37,.27-8.75-.03-13.1-.29-4.2,1.52-6.84,4.97-8.81,7.57-4.34,15.09-8.76,22.63-13.14,2.87-1.67,5.75-3.33,9.29-5.38Z"/>
      </g>
      <g>
        <path class="cls-1" d="M637.73,24.18h33.71c-1.07,4.34-2.1,8.53-3.12,12.71-5.44,22.13-10.52,44.35-16.41,66.36-6.95,26-23.62,42.22-50.45,47.12-11.52,2.1-23.01,1.57-34.23-2.1-19.41-6.36-30.01-22.68-27.16-44.08,1.18-8.88,3.52-17.62,5.64-26.35,4.1-16.89,8.41-33.72,12.64-50.58,.25-1,.61-1.97,.97-3.1h33.12c-.05,.91,.04,1.78-.16,2.59-4.81,19.81-9.69,39.61-14.48,59.43-1.33,5.53-2.66,11.09-3.52,16.71-1.77,11.59,5.11,19.6,16.83,19.95,12.63,.38,21.85-5.68,26.04-17.98,2.5-7.35,4.14-15.01,6.01-22.57,4.57-18.47,9.04-36.97,13.57-55.45,.21-.85,.62-1.65,1-2.64Z"/>
        <path class="cls-1" d="M528.01,148.34c-11.77,0-22.85-.05-33.93,.04-2.62,.02-3.18-1.86-4.01-3.57-4.59-9.43-9.14-18.88-13.72-28.32-.32-.66-.73-1.27-1.25-2.16-3.74,3.02-7.46,5.8-10.88,8.91-1.09,.99-1.62,2.81-1.99,4.35-1.35,5.53-2.51,11.11-3.78,16.66-.29,1.28-.73,2.53-1.16,4.01h-30.7c-.31-3.45,23.79-104.47,30.36-127.06h30.38c-1.02,7.98-3.72,15.43-5.44,23.08-1.71,7.6-3.59,15.17-5.44,22.74-1.88,7.68-3.8,15.34-5.98,24.11,1.79-1.32,2.73-1.91,3.55-2.63,9.96-8.88,19.93-17.77,29.83-26.72,1.41-1.27,2.76-1.99,4.74-1.97,10.5,.07,21-.02,31.51-.04,.53,0,1.07,.09,2.59,.23-14.49,12.48-28.28,24.35-42.21,36.34,9.12,17.23,18.15,34.29,27.54,52.02Z"/>
        <path class="cls-1" d="M381.06,148.07c3.78-15.41,7.47-30.23,11.01-45.08,.79-3.33,1.47-6.78,1.49-10.18,.05-6.19-4.29-10.37-10.44-10.66-9.12-.44-17.76,5.12-20.29,13.95-3.26,11.37-5.91,22.92-8.76,34.41-1.4,5.67-2.67,11.37-4.1,17.49h-31.04c7.08-29.25,14.17-58.54,21.29-87.95h28.17c-.6,3.47-1.17,6.75-1.89,10.84,2.14-1.78,3.69-3.12,5.3-4.4,10.93-8.69,23.31-10.65,36.48-7.04,11.14,3.06,17.29,11.43,17.44,23.36,.06,4.89-.7,9.89-1.78,14.68-3.72,16.52-7.75,32.97-11.68,49.44-.06,.27-.28,.5-.65,1.13h-30.58Z"/>
        <path class="cls-1" d="M207.23,24h33.05c-7.86,32.29-15.66,64.34-23.56,96.78h52.6c-2.4,9.32-4.68,18.2-7.04,27.38h-85.67c10.19-41.32,20.38-82.63,30.62-124.16Z"/>
        <path class="cls-1" d="M691.73,148.37h-34.69c10.28-41.5,20.5-82.8,30.76-124.22h34.62c-10.23,41.39-20.42,82.63-30.69,124.22Z"/>
        <path class="cls-1" d="M303.58,148.24h-30.74c2.98-14.92,6.88-29.43,10.3-44.03,3.44-14.69,7.11-29.33,10.68-43.98h30.85c-6.46,29.57-14.18,58.46-21.09,88.02Z"/>
        <path class="cls-1" d="M317.36,18.34c11.91-.07,18.36,10.15,12.82,20.64-1.28,2.42-3.34,4.71-5.58,6.29-6.36,4.49-13.24,5.22-20.3,1.45-4.48-2.4-6.75-7.03-5.97-12.02,1.49-9.58,9.32-16.32,19.03-16.37Z"/>
      </g>
    </g>
  </g>
</svg>